<?xml version="1.0" encoding="utf-8"?>
<!-- Generator: Adobe Illustrator 27.6.1, SVG Export Plug-In . SVG Version: 6.00 Build 0)  -->
<svg version="1.1" id="Layer_1" xmlns="http://www.w3.org/2000/svg" xmlns:xlink="http://www.w3.org/1999/xlink" x="0px" y="0px"
	 viewBox="0 0 200 200" style="enable-background:new 0 0 200 200;" xml:space="preserve">
<style type="text/css">
	.st0{fill:#FFFFFF;}
</style>
<g>
	<g>
		<circle class="st0" cx="100" cy="100" r="87.1"/>
		<path d="M100,196.1C47,196.1,3.9,153,3.9,100C3.9,47,47,3.9,100,3.9c53,0,96.1,43.1,96.1,96.1C196.1,153,153,196.1,100,196.1z
			 M100,21.9c-43.1,0-78.1,35-78.1,78.1s35,78.1,78.1,78.1s78.1-35,78.1-78.1S143.1,21.9,100,21.9z"/>
	</g>
	<path d="M147.2,91H109V52.8c0-5-4-9-9-9s-9,4-9,9V91H52.8c-5,0-9,4-9,9s4,9,9,9H91v38.2c0,5,4,9,9,9s9-4,9-9V109h38.2c5,0,9-4,9-9
		S152.2,91,147.2,91z"/>
</g>
</svg>
