<?xml version="1.0" encoding="utf-8"?>
<!-- Generator: Adobe Illustrator 27.6.1, SVG Export Plug-In . SVG Version: 6.00 Build 0)  -->
<svg version="1.1" id="Layer_1" xmlns="http://www.w3.org/2000/svg" xmlns:xlink="http://www.w3.org/1999/xlink" x="0px" y="0px"
	 viewBox="0 0 200 200" style="enable-background:new 0 0 200 200;" xml:space="preserve">
<path d="M174.31,70.83l17.97-1.02l-3.33-58.9l-60.9-5.63l-1.66,17.92l33.22,3.07l-20.75,20.75c-13.7-10.27-30.71-16.36-49.11-16.36
	c-45.24,0-82.05,36.81-82.05,82.05c0,45.24,36.81,82.05,82.05,82.05c45.24,0,82.05-36.81,82.05-82.05c0-20.36-7.47-39-19.8-53.36
	l20.5-20.5L174.31,70.83z M89.75,176.76c-35.31,0-64.05-28.73-64.05-64.05s28.73-64.05,64.05-64.05c35.32,0,64.05,28.73,64.05,64.05
	S125.07,176.76,89.75,176.76z"/>
</svg>
