<?xml version="1.0" encoding="utf-8"?>
<!-- Generator: Adobe Illustrator 27.6.1, SVG Export Plug-In . SVG Version: 6.00 Build 0)  -->
<svg version="1.1" id="Layer_1" xmlns="http://www.w3.org/2000/svg" xmlns:xlink="http://www.w3.org/1999/xlink" x="0px" y="0px"
	 viewBox="0 0 200 200" style="enable-background:new 0 0 200 200;" xml:space="preserve">
<style type="text/css">
	.st0{fill-rule:evenodd;clip-rule:evenodd;fill:#010101;}
</style>
<path class="st0" d="M159.1,6.58c-2.53-2.36-5.45-3.62-8.71-3.45c-3.26,0-6.18,1.26-8.54,3.82L122.6,26.91l53.92,52.11l19.42-20.34
	c2.36-2.36,3.26-5.45,3.26-8.71s-1.26-6.35-3.62-8.54L159.1,6.58L159.1,6.58L159.1,6.58z M33.41,119.83l74.61-77.79l53.92,51.93
	l-75.51,78.88L33.41,119.83L33.41,119.83z M72.52,186.55l-67.18,10.3c-2.89,0.44-5.23-2.3-4.35-5.09l18.51-58.09L72.52,186.55z"/>
</svg>
