<?xml version="1.0" encoding="utf-8"?>
<!-- Generator: Adobe Illustrator 27.6.1, SVG Export Plug-In . SVG Version: 6.00 Build 0)  -->
<svg version="1.1" id="Layer_1" xmlns="http://www.w3.org/2000/svg" xmlns:xlink="http://www.w3.org/1999/xlink" x="0px" y="0px"
	 viewBox="0 0 200 200" style="enable-background:new 0 0 200 200;" xml:space="preserve">
<style type="text/css">
	.st0{fill:none;stroke:#000000;stroke-width:18;stroke-miterlimit:10;}
</style>
<path d="M176.17,77.16C176.17,35.16,142,1,100,1S23.83,35.16,23.83,77.16c0,38.95,29.4,71.15,67.17,75.62v7.7H70.04v18H91v20.96h18
	v-20.96h20.96v-18H109v-7.7C146.77,148.31,176.17,116.12,176.17,77.16z M41.83,77.16C41.83,45.09,67.93,19,100,19
	c32.07,0,58.17,26.09,58.17,58.17s-26.09,58.17-58.17,58.17C67.93,135.33,41.83,109.24,41.83,77.16z"/>
<g>
	<circle class="st0" cx="352.64" cy="1098.67" r="69.27"/>
	<g>
		<line class="st0" x1="352.64" y1="1224.78" x2="352.64" y2="1162.98"/>
		<line class="st0" x1="321.74" y1="1193.88" x2="383.54" y2="1193.88"/>
	</g>
</g>
</svg>
