<?xml version="1.0" encoding="utf-8"?>
<!-- Generator: Adobe Illustrator 27.6.1, SVG Export Plug-In . SVG Version: 6.00 Build 0)  -->
<svg version="1.1" id="Layer_1" xmlns="http://www.w3.org/2000/svg" xmlns:xlink="http://www.w3.org/1999/xlink" x="0px" y="0px"
	 viewBox="0 0 200 200" style="enable-background:new 0 0 200 200;" xml:space="preserve">
<path d="M98.2,158.19l-1.9,8.78c-1.1-0.2-26.55-5.79-40.62-21.66c-5.69-6.29-9.58-13.08-12.28-19.56H0.19v-8.98h40.03
	c-0.8-3.19-1.5-6.19-1.9-8.98H0.19V98.8h37.33c-0.2-3.09,0-5.09,0-5.39l8.98,0.7c0,0.1-0.1,1.8,0,4.69h9.18v8.98H47.5
	c0.5,2.79,1.2,5.79,2.2,8.98h5.99v8.98h-2.4c2.2,4.59,5.19,9.18,9.08,13.57C74.45,153,97.9,158.19,98.2,158.19z M199.81,107.79V98.8
	h-37.33c0.1-3.09,0-5.09,0-5.39l-8.98,0.7c0,0.1,0.1,1.8,0,4.69h-9.18v8.98h8.18c-0.5,2.79-1.2,5.79-2.2,8.98h-5.99v8.98h2.4
	c-2.2,4.59-5.19,9.18-9.08,13.57c-12.08,13.57-35.53,18.86-35.73,18.86l1,4.39l1,4.39c1.1-0.2,26.55-5.89,40.62-21.66
	c5.69-6.39,9.58-13.08,12.28-19.56h43.02v-8.98h-40.13c0.9-3.19,1.5-6.19,1.9-8.98H199.81z M35.02,70.26l-0.7-25.35l22.66,6.19
	l2.4-8.68l-34.34-9.38l1,37.43L35.02,70.26z M165.68,44.9l-0.7,25.35l8.98,0.2l1-37.43l-34.34,9.38l2.4,8.68L165.68,44.9z"/>
</svg>
