<?xml version="1.0" encoding="utf-8"?>
<!-- Generator: Adobe Illustrator 27.6.1, SVG Export Plug-In . SVG Version: 6.00 Build 0)  -->
<svg version="1.1" id="Layer_1" xmlns="http://www.w3.org/2000/svg" xmlns:xlink="http://www.w3.org/1999/xlink" x="0px" y="0px"
	 viewBox="0 0 200 200" style="enable-background:new 0 0 200 200;" xml:space="preserve">
<style type="text/css">
	.st0{fill:#FFFFFF;}
</style>
<g>
	<circle class="st0" cx="87.13" cy="82.84" r="72.35"/>
	<path d="M191.58,183.14l-44.93-44.93c13.53-14.53,21.83-34,21.83-55.38c0-44.86-36.49-81.35-81.35-81.35S5.78,37.99,5.78,82.84
		s36.49,81.35,81.35,81.35c16.99,0,32.78-5.25,45.84-14.19l45.87,45.87c1.76,1.76,4.06,2.64,6.36,2.64s4.61-0.88,6.36-2.64
		C195.09,192.36,195.09,186.66,191.58,183.14z M23.78,82.84c0-34.93,28.42-63.35,63.35-63.35c34.93,0,63.35,28.42,63.35,63.35
		c0,34.93-28.42,63.35-63.35,63.35C52.2,146.19,23.78,117.77,23.78,82.84z"/>
</g>
</svg>
